<svg xmlns="http://www.w3.org/2000/svg" xmlns:xlink="http://www.w3.org/1999/xlink" width="1366" zoomAndPan="magnify" viewBox="0 0 1024.5 576" height="768" preserveAspectRatio="xMidYMid meet" version="1.0"><defs><clipPath id="0fd4370ba6"><path d="M 0 0.140625 L 1024 0.140625 L 1024 575.859375 L 0 575.859375 Z M 0 0.140625 " clip-rule="nonzero"/></clipPath><clipPath id="ec5aa94475"><path d="M 260 115.878906 L 765 115.878906 L 765 327 L 260 327 Z M 260 115.878906 " clip-rule="nonzero"/></clipPath><clipPath id="585f860d88"><path d="M 105 47 L 290 47 L 290 221 L 105 221 Z M 105 47 " clip-rule="nonzero"/></clipPath><clipPath id="3304eac3c2"><path d="M 91.28125 191.105469 L 221.476562 17.011719 L 331.9375 99.617188 L 201.738281 273.714844 Z M 91.28125 191.105469 " clip-rule="nonzero"/></clipPath><clipPath id="88c73d3418"><path d="M 91.28125 191.105469 L 221.476562 17.011719 L 331.9375 99.617188 L 201.738281 273.714844 Z M 91.28125 191.105469 " clip-rule="nonzero"/></clipPath><clipPath id="dde2027390"><path d="M 836 26.347656 L 934.972656 26.347656 L 934.972656 145 L 836 145 Z M 836 26.347656 " clip-rule="nonzero"/></clipPath><clipPath id="9df8f94434"><path d="M 783 172 L 853 172 L 853 256.484375 L 783 256.484375 Z M 783 172 " clip-rule="nonzero"/></clipPath><clipPath id="59a369c41a"><path d="M 751.3125 95 L 802 95 L 802 157 L 751.3125 157 Z M 751.3125 95 " clip-rule="nonzero"/></clipPath><clipPath id="8134f33d52"><path d="M 170 460 L 215 460 L 215 498.652344 L 170 498.652344 Z M 170 460 " clip-rule="nonzero"/></clipPath><clipPath id="bd03238a74"><path d="M 245 420 L 267.175781 420 L 267.175781 435 L 245 435 Z M 245 420 " clip-rule="nonzero"/></clipPath><clipPath id="3aa34f7fec"><path d="M 162 327.734375 L 175 327.734375 L 175 350 L 162 350 Z M 162 327.734375 " clip-rule="nonzero"/></clipPath><clipPath id="1641a58e02"><path d="M 843.007812 395.421875 L 923.21875 395.421875 L 923.21875 498.871094 L 843.007812 498.871094 Z M 843.007812 395.421875 " clip-rule="nonzero"/></clipPath><clipPath id="7b25db2d2c"><path d="M 843.007812 395.421875 L 871 395.421875 L 871 425 L 843.007812 425 Z M 843.007812 395.421875 " clip-rule="nonzero"/></clipPath></defs><g clip-path="url(#0fd4370ba6)"><path fill="#ffffff" d="M 0 0.140625 L 1024 0.140625 L 1024 575.859375 L 0 575.859375 Z M 0 0.140625 " fill-opacity="1" fill-rule="nonzero"/><path fill="#ffffff" d="M 0 0.140625 L 1024 0.140625 L 1024 575.859375 L 0 575.859375 Z M 0 0.140625 " fill-opacity="1" fill-rule="nonzero"/></g><g clip-path="url(#ec5aa94475)"><path fill="#a1eebd" d="M 523.300781 182.117188 C 535.445312 179.558594 547.714844 177.925781 560.105469 177.21875 C 572.464844 176.535156 584.734375 175.453125 597.128906 175.320312 C 622 175.039062 646.664062 177.585938 671.144531 181.835938 C 692.527344 185.550781 715.144531 189.683594 734.207031 200.65625 C 741.679688 204.957031 749.355469 210.753906 753.539062 218.496094 C 757.550781 225.921875 757.597656 234.5625 754.957031 242.390625 C 749.398438 258.925781 731.058594 268.390625 716.316406 275.078125 C 706.867188 279.339844 696.910156 282.25 687.027344 285.207031 C 675.0625 288.785156 663.003906 292.003906 650.851562 294.863281 C 602.242188 306.230469 552.984375 312.519531 503.078125 313.730469 C 454.078125 314.933594 404.253906 312.933594 356.175781 302.660156 C 334.960938 298.125 313.148438 290.652344 297.355469 275.953125 C 283.203125 262.78125 274.085938 245.714844 275.707031 226.492188 C 275.761719 225.875 275.824219 225.265625 275.898438 224.648438 C 276.042969 223.390625 275.71875 225.6875 275.929688 224.445312 C 276.109375 223.335938 276.296875 222.28125 276.53125 221.207031 C 276.988281 219.078125 277.5625 216.980469 278.253906 214.917969 C 278.597656 213.886719 278.976562 212.875 279.363281 211.863281 C 279.859375 210.582031 278.636719 213.425781 279.582031 211.308594 C 279.78125 210.871094 279.976562 210.429688 280.183594 209.992188 C 281.113281 208.023438 282.132812 206.105469 283.242188 204.230469 C 287.734375 196.675781 292.910156 190.925781 300.011719 184.6875 C 306.613281 178.882812 314.148438 173.808594 322.53125 169.128906 C 330.679688 164.535156 339.140625 160.613281 347.910156 157.355469 C 367.917969 149.882812 388.765625 144.339844 409.695312 140.160156 C 430.59375 135.964844 451.691406 133.34375 472.984375 132.296875 C 494.820312 131.164062 516.628906 131.5625 538.40625 133.492188 C 543.808594 133.96875 549.203125 134.539062 554.585938 135.203125 L 558.171875 135.660156 C 556.71875 135.472656 560.214844 135.9375 559.964844 135.90625 C 558.96875 135.765625 560.441406 135.976562 560.519531 135.988281 C 563.5 136.433594 566.480469 136.871094 569.445312 137.355469 C 580.144531 139.101562 590.773438 141.210938 601.328125 143.691406 C 622.464844 148.65625 643.148438 155.074219 663.378906 162.949219 C 683.175781 170.703125 702.324219 179.820312 720.824219 190.296875 C 729.953125 195.46875 739.164062 200.8125 747.875 206.628906 C 751.644531 209.136719 757.140625 207.367188 759.332031 203.628906 C 761.726562 199.527344 760.101562 194.6875 756.324219 192.175781 C 737.550781 179.570312 717.914062 168.492188 697.414062 158.941406 C 676.480469 149.296875 654.941406 141.269531 632.796875 134.863281 C 611.007812 128.558594 588.882812 123.816406 566.425781 120.636719 C 543.964844 117.457031 521.394531 115.871094 498.710938 115.878906 C 453.371094 115.914062 407.878906 122.476562 364.515625 135.753906 C 344.59375 141.867188 324.953125 149.335938 307.320312 160.589844 C 290.878906 171.082031 275.125 185.042969 266.933594 203.113281 C 257.992188 222.859375 258.835938 244.816406 269.160156 263.929688 C 280.148438 284.246094 299.410156 298.027344 320.472656 306.472656 C 343.472656 315.683594 368.628906 318.699219 393.066406 321.507812 C 418.875 324.488281 444.886719 326.289062 470.871094 326.761719 C 522.664062 327.707031 574.699219 322.371094 625.4375 312.050781 C 650.898438 306.871094 676.144531 300.378906 700.972656 292.710938 C 719.867188 286.878906 738.972656 278.617188 752.539062 263.695312 C 758.4375 257.203125 763.289062 249.296875 764.582031 240.507812 C 765.984375 231.011719 763.800781 221.867188 759.023438 213.625 C 749.09375 196.546875 729.121094 188.027344 711.121094 182.320312 C 698.894531 178.429688 686.445312 174.730469 673.882812 172.050781 C 661.132812 169.394531 648.265625 167.5625 635.28125 166.554688 C 609.742188 164.4375 583.285156 164.375 557.976562 168.777344 C 545.835938 170.882812 533.765625 173.601562 521.800781 176.523438 C 518.15625 177.417969 519.710938 182.875 523.347656 182.121094 Z M 523.300781 182.117188 " fill-opacity="1" fill-rule="nonzero"/></g><g clip-path="url(#585f860d88)"><g clip-path="url(#3304eac3c2)"><g clip-path="url(#88c73d3418)"><path fill="#7bd3ea" d="M 155.730469 104.925781 C 158.609375 102.074219 161.535156 99.257812 164.371094 96.375 C 169.933594 90.800781 172.523438 90.527344 178.003906 95.578125 C 202.683594 118.1875 227.355469 140.859375 251.992188 163.539062 C 253.648438 165.050781 255.652344 166.242188 257.011719 167.972656 C 258.035156 169.246094 258.25 171.144531 258.835938 172.773438 C 257.011719 172.839844 254.863281 173.582031 253.453125 172.867188 C 241.542969 166.71875 229.71875 160.460938 217.992188 153.972656 C 196.363281 141.984375 174.828125 129.859375 153.339844 117.636719 C 151.746094 116.714844 150.777344 114.734375 149.511719 113.242188 Z M 235 156.71875 L 235.332031 156.046875 C 214.367188 136.523438 193.363281 117.003906 171.96875 97.089844 L 156.324219 113.503906 C 182.824219 128.046875 208.90625 142.414062 235 156.71875 Z M 231.75 214.226562 C 232.132812 215.125 233.289062 216.535156 232.96875 217.417969 C 232.535156 218.589844 231.0625 220.011719 229.882812 220.179688 C 226.824219 220.582031 223.699219 220.664062 220.625 220.40625 C 183.386719 217.542969 146.664062 211.484375 110.257812 203.320312 C 107.363281 202.6875 105.050781 201.367188 106.164062 198.148438 C 108.644531 191.050781 111.410156 184.03125 114.339844 177.066406 C 116.0625 172.941406 119.101562 172.5625 123.238281 174.089844 C 158.226562 187.152344 193.285156 200.027344 228.335938 212.964844 Z M 206.023438 213.945312 L 206.585938 212.050781 C 177.738281 201.609375 148.898438 191.203125 119.152344 180.460938 L 113.054688 198.535156 C 144.515625 203.753906 175.257812 208.839844 206.023438 213.945312 Z M 263.6875 48.222656 C 264.199219 49.589844 264.863281 50.972656 265.210938 52.425781 C 272.621094 84.480469 280.027344 116.535156 287.398438 148.59375 C 287.929688 150.933594 288.960938 153.199219 289.179688 155.542969 C 289.296875 156.753906 288.203125 158.078125 287.664062 159.34375 C 286.535156 158.808594 284.921875 158.554688 284.402344 157.65625 C 282.136719 153.8125 280.226562 149.765625 278.140625 145.824219 C 263.648438 118.546875 249.175781 91.25 234.6875 63.972656 C 229.5625 54.355469 229.625 52.902344 240.140625 50.082031 C 246.964844 48.242188 254.320312 48.328125 261.4375 47.59375 C 262.070312 47.523438 262.75 47.929688 263.6875 48.222656 Z M 276.050781 128.773438 L 277.199219 128.644531 C 271.546875 104.164062 265.953125 79.695312 260.144531 55.238281 C 259.871094 54.011719 257.703125 52.222656 256.671875 52.371094 C 250.019531 53.351562 243.453125 54.804688 236.558594 56.148438 C 250.160156 81.195312 263.113281 104.972656 276.050781 128.773438 Z M 276.050781 128.773438 " fill-opacity="1" fill-rule="nonzero"/></g></g></g><g clip-path="url(#dde2027390)"><path fill="#f6d6d6" d="M 919.570312 92.996094 C 922.589844 92.28125 925.542969 91.285156 928.558594 90.5625 C 931.453125 89.867188 934.695312 89.195312 934.320312 85.460938 C 933.992188 82.222656 930.902344 81.960938 928.199219 81.648438 C 918.6875 80.546875 911.367188 75.382812 904.421875 69.207031 C 894.09375 60.03125 892.496094 47.285156 889.730469 34.960938 C 889.46875 33.789062 889.40625 32.574219 889.148438 31.402344 C 888.605469 28.902344 887.578125 26.5625 884.574219 26.796875 C 881.625 27.03125 881.023438 29.371094 880.722656 31.984375 C 879.511719 42.511719 877.46875 52.75 871.308594 61.78125 C 864.628906 71.570312 857.488281 79.757812 843.710938 75.859375 C 840.875 75.054688 836.625 74.757812 836.285156 79.679688 C 836.820312 83.347656 839.332031 84.722656 842.109375 85.683594 C 861.789062 92.511719 872.386719 107.082031 873.03125 128.15625 C 873.140625 131.75 873.488281 135.339844 873.796875 138.921875 C 874.023438 141.511719 873.832031 144.863281 877.4375 144.886719 C 881.523438 144.910156 881.21875 141.285156 881.40625 138.46875 C 881.917969 130.769531 883.410156 123.296875 886.847656 116.351562 C 893.570312 102.757812 905.480469 96.339844 919.570312 92.996094 Z M 912.9375 86.410156 C 896.816406 89.757812 886.910156 99.183594 879.109375 111.984375 C 874.429688 100.566406 869.433594 90.84375 859.984375 83.816406 C 872.972656 77.609375 878.992188 66.300781 885.285156 53.785156 C 889.582031 68.71875 899.796875 77.59375 912.9375 86.410156 Z M 912.9375 86.410156 " fill-opacity="1" fill-rule="nonzero"/></g><g clip-path="url(#9df8f94434)"><path fill="#f6d6d6" d="M 842.132812 219.632812 C 844.269531 219.125 846.363281 218.417969 848.503906 217.90625 C 850.554688 217.414062 852.851562 216.9375 852.585938 214.289062 C 852.355469 211.992188 850.164062 211.804688 848.25 211.585938 C 841.503906 210.804688 836.3125 207.140625 831.390625 202.765625 C 824.066406 196.257812 822.933594 187.21875 820.972656 178.480469 C 820.785156 177.652344 820.742188 176.789062 820.558594 175.957031 C 820.175781 174.1875 819.449219 172.523438 817.316406 172.695312 C 815.226562 172.859375 814.800781 174.519531 814.585938 176.371094 C 813.726562 183.835938 812.28125 191.09375 807.910156 197.5 C 803.175781 204.4375 798.109375 210.242188 788.34375 207.476562 C 786.332031 206.910156 783.320312 206.695312 783.078125 210.1875 C 783.457031 212.789062 785.238281 213.761719 787.207031 214.445312 C 801.160156 219.285156 808.675781 229.617188 809.132812 244.558594 C 809.210938 247.109375 809.457031 249.652344 809.675781 252.195312 C 809.835938 254.03125 809.703125 256.40625 812.257812 256.421875 C 815.152344 256.4375 814.9375 253.871094 815.070312 251.871094 C 815.433594 246.414062 816.492188 241.113281 818.925781 236.191406 C 823.695312 226.554688 832.140625 222.003906 842.128906 219.628906 Z M 837.425781 214.960938 C 825.996094 217.335938 818.972656 224.019531 813.441406 233.09375 C 810.125 224.996094 806.582031 218.101562 799.882812 213.121094 C 809.089844 208.722656 813.359375 200.703125 817.820312 191.828125 C 820.867188 202.417969 828.109375 208.710938 837.425781 214.960938 Z M 837.425781 214.960938 " fill-opacity="1" fill-rule="nonzero"/></g><g clip-path="url(#59a369c41a)"><path fill="#f6d6d6" d="M 793.914062 129.523438 C 795.457031 129.15625 796.96875 128.648438 798.511719 128.277344 C 799.992188 127.921875 801.648438 127.578125 801.457031 125.667969 C 801.292969 124.011719 799.710938 123.878906 798.328125 123.71875 C 793.460938 123.15625 789.71875 120.511719 786.164062 117.355469 C 780.882812 112.660156 780.0625 106.140625 778.652344 99.835938 C 778.515625 99.238281 778.484375 98.617188 778.351562 98.015625 C 778.074219 96.738281 777.550781 95.539062 776.011719 95.660156 C 774.503906 95.78125 774.195312 96.976562 774.042969 98.316406 C 773.421875 103.699219 772.378906 108.9375 769.226562 113.558594 C 765.8125 118.5625 762.15625 122.753906 755.109375 120.757812 C 753.660156 120.347656 751.488281 120.195312 751.3125 122.710938 C 751.585938 124.589844 752.871094 125.289062 754.289062 125.785156 C 764.355469 129.273438 769.777344 136.726562 770.109375 147.507812 C 770.164062 149.347656 770.339844 151.183594 770.5 153.015625 C 770.613281 154.339844 770.519531 156.054688 772.363281 156.066406 C 774.453125 156.078125 774.296875 154.226562 774.390625 152.78125 C 774.652344 148.84375 775.417969 145.023438 777.175781 141.472656 C 780.613281 134.519531 786.707031 131.234375 793.914062 129.523438 Z M 790.519531 126.15625 C 782.273438 127.867188 777.207031 132.691406 773.21875 139.238281 C 770.824219 133.394531 768.265625 128.421875 763.433594 124.828125 C 770.078125 121.65625 773.15625 115.867188 776.375 109.464844 C 778.574219 117.105469 783.800781 121.648438 790.519531 126.15625 Z M 790.519531 126.15625 " fill-opacity="1" fill-rule="nonzero"/></g><g clip-path="url(#8134f33d52)"><path fill="#ffde59" d="M 193.167969 498.5 C 188.839844 498.5 180.605469 497.941406 175.804688 495.683594 C 172.898438 494.320312 171.421875 486.808594 170.351562 467.96875 C 170.273438 466.609375 170.710938 465.398438 171.644531 464.367188 C 174.035156 461.746094 179.46875 460.472656 189.800781 460.117188 C 200.085938 459.753906 212.621094 460.632812 213.875 466.785156 C 214.550781 470.113281 213.226562 480.640625 211.6875 492.054688 L 211.433594 493.921875 C 211.207031 495.65625 209.757812 497.433594 195.203125 498.441406 C 194.707031 498.476562 194.011719 498.5 193.167969 498.5 Z M 193.46875 462.964844 C 192.339844 462.964844 191.148438 462.988281 189.90625 463.03125 C 186.5625 463.148438 176.390625 463.496094 173.804688 466.324219 C 173.410156 466.765625 173.234375 467.230469 173.269531 467.789062 C 174.445312 488.398438 176.152344 492.453125 177.066406 493.035156 C 181.984375 495.351562 191.761719 495.746094 195.007812 495.523438 C 205.75 494.777344 208.113281 493.621094 208.578125 493.289062 L 208.800781 491.65625 C 209.796875 484.257812 211.65625 470.484375 211.015625 467.355469 C 210.550781 465.085938 204.933594 462.964844 193.46875 462.964844 Z M 189.859375 461.574219 Z M 189.859375 461.574219 " fill-opacity="1" fill-rule="nonzero"/></g><path fill="#ffde59" d="M 172.132812 474.554688 C 171.597656 474.554688 171.082031 474.261719 170.832031 473.746094 C 170.46875 473.027344 170.761719 472.148438 171.480469 471.785156 C 186.359375 464.316406 210.925781 469.105469 211.964844 469.308594 C 212.757812 469.46875 213.265625 470.234375 213.105469 471.019531 C 212.945312 471.808594 212.179688 472.324219 211.394531 472.171875 C 211.148438 472.121094 186.769531 467.375 172.789062 474.394531 C 172.574219 474.503906 172.347656 474.554688 172.132812 474.554688 Z M 172.132812 474.554688 " fill-opacity="1" fill-rule="nonzero"/><path fill="#ffde59" d="M 178.855469 480.738281 C 178.25 480.738281 177.6875 480.355469 177.476562 479.757812 C 177.210938 479 177.617188 478.160156 178.382812 477.902344 C 191.925781 473.230469 211.113281 476.488281 211.929688 476.628906 C 212.722656 476.769531 213.253906 477.519531 213.121094 478.316406 C 212.980469 479.109375 212.222656 479.644531 211.433594 479.507812 C 211.238281 479.472656 192.171875 476.238281 179.34375 480.664062 C 179.171875 480.710938 179.011719 480.738281 178.855469 480.738281 Z M 178.855469 480.738281 " fill-opacity="1" fill-rule="nonzero"/><path fill="#ffde59" d="M 211.074219 487.058594 C 210.933594 487.058594 210.789062 487.039062 210.640625 486.996094 C 210.480469 486.949219 200.867188 484.097656 188.304688 486.300781 C 187.511719 486.4375 186.75 485.910156 186.609375 485.113281 C 186.472656 484.320312 187 483.5625 187.796875 483.421875 C 201.128906 481.089844 211.078125 484.078125 211.496094 484.210938 C 212.269531 484.445312 212.703125 485.261719 212.464844 486.035156 C 212.269531 486.65625 211.691406 487.058594 211.074219 487.058594 Z M 211.074219 487.058594 " fill-opacity="1" fill-rule="nonzero"/><path fill="#ffde59" d="M 206.371094 463.183594 C 204.078125 455.527344 207.457031 447.777344 210.691406 442.621094 C 212.3125 440.039062 214.167969 437.59375 215.957031 435.222656 C 218.199219 432.261719 220.511719 429.195312 222.3125 425.945312 C 226.449219 418.445312 227.988281 409.667969 226.636719 401.21875 C 225.496094 394.039062 222.242188 387.277344 217.484375 382.183594 C 209.777344 373.933594 197.585938 369.507812 184.855469 370.339844 C 178.851562 370.730469 170.203125 372.441406 163.140625 378.351562 C 156.296875 384.078125 152.0625 393.183594 151.808594 402.722656 C 151.574219 411.6875 154.695312 420.914062 160.601562 428.695312 C 162.332031 430.972656 164.308594 433.148438 166.226562 435.25 C 168.613281 437.878906 171.089844 440.589844 173.164062 443.589844 C 177.769531 450.238281 179.332031 457.371094 177.433594 463.167969 L 174.664062 462.261719 C 176.273438 457.34375 174.851562 451.144531 170.769531 445.257812 C 168.796875 442.414062 166.394531 439.773438 164.066406 437.222656 C 162.109375 435.070312 160.082031 432.847656 158.277344 430.464844 C 151.96875 422.160156 148.632812 412.28125 148.890625 402.652344 C 149.175781 392.285156 153.804688 382.371094 161.277344 376.113281 C 168.949219 369.699219 178.238281 367.851562 184.679688 367.425781 C 198.265625 366.542969 211.335938 371.308594 219.636719 380.191406 C 224.785156 385.707031 228.300781 393.007812 229.535156 400.757812 C 230.984375 409.847656 229.332031 419.296875 224.882812 427.359375 C 222.980469 430.800781 220.605469 433.941406 218.296875 436.984375 C 216.542969 439.304688 214.722656 441.703125 213.167969 444.175781 C 210.257812 448.816406 207.199219 455.734375 209.171875 462.347656 Z M 206.371094 463.183594 " fill-opacity="1" fill-rule="nonzero"/><path fill="#ffde59" d="M 195.425781 462.625 C 193.65625 456.070312 194.253906 444.246094 197.453125 436.539062 C 195.808594 436.261719 194.308594 435.78125 193.214844 435.152344 C 193.042969 435.054688 192.875 434.953125 192.714844 434.855469 C 190.574219 435.96875 188.101562 436.582031 185.539062 436.589844 C 185.511719 436.589844 185.488281 436.589844 185.460938 436.589844 C 187.992188 444.335938 188.476562 453.136719 186.855469 462.402344 L 183.976562 461.902344 C 185.601562 452.605469 185 443.847656 182.257812 436.261719 C 179.398438 435.683594 176.808594 434.332031 174.871094 432.367188 C 174.203125 431.691406 173.332031 430.632812 173.394531 429.21875 C 173.441406 428.214844 173.988281 427.308594 174.898438 426.738281 C 175.972656 426.0625 177.40625 425.9375 178.550781 426.417969 C 180.160156 427.09375 182.082031 428.847656 182.84375 430.324219 C 183.390625 431.398438 183.902344 432.5 184.359375 433.621094 C 184.742188 433.65625 185.121094 433.664062 185.511719 433.667969 C 187.125 433.664062 188.703125 433.371094 190.121094 432.820312 C 188.242188 430.925781 187.15625 428.652344 187.09375 426.347656 C 187.035156 424.125 188.242188 421.8125 190.171875 420.453125 C 191.800781 419.304688 193.695312 419.019531 195.375 419.664062 C 197.765625 420.585938 199.332031 423.199219 199.1875 426.019531 C 199.039062 428.785156 197.453125 430.964844 196.140625 432.304688 C 195.914062 432.542969 195.667969 432.769531 195.417969 432.992188 C 196.351562 433.371094 197.542969 433.640625 198.804688 433.789062 C 199.625 432.402344 200.574219 431.265625 201.640625 430.457031 C 203.660156 428.933594 205.929688 428.890625 207.277344 429.53125 C 208.25 429.992188 208.851562 430.847656 208.886719 431.808594 C 208.941406 433.328125 208.175781 434.652344 206.730469 435.523438 C 205.171875 436.464844 202.878906 436.855469 200.519531 436.824219 C 197.492188 443.4375 196.433594 455.226562 198.226562 461.867188 Z M 205.421875 432.054688 C 204.898438 432.054688 204.160156 432.214844 203.414062 432.777344 C 203.039062 433.0625 202.683594 433.414062 202.335938 433.832031 C 203.484375 433.710938 204.515625 433.453125 205.234375 433.015625 C 205.792969 432.679688 205.9375 432.359375 205.972656 432.128906 C 205.855469 432.089844 205.660156 432.054688 205.421875 432.054688 Z M 177.066406 429.042969 C 176.851562 429.042969 176.628906 429.097656 176.453125 429.203125 C 176.371094 429.257812 176.308594 429.324219 176.308594 429.351562 C 176.308594 429.421875 176.339844 429.699219 176.949219 430.3125 C 178.015625 431.390625 179.34375 432.242188 180.820312 432.8125 C 180.640625 432.421875 180.445312 432.039062 180.25 431.65625 C 179.796875 430.777344 178.398438 429.515625 177.421875 429.105469 C 177.316406 429.066406 177.199219 429.042969 177.066406 429.042969 Z M 193.5625 422.242188 C 192.847656 422.242188 192.226562 422.585938 191.871094 422.84375 C 190.734375 423.644531 189.996094 425.023438 190.03125 426.277344 C 190.074219 428.0625 191.097656 429.867188 192.839844 431.34375 C 193.285156 431.015625 193.695312 430.652344 194.078125 430.261719 C 195.429688 428.875 196.21875 427.308594 196.296875 425.859375 C 196.371094 424.332031 195.535156 422.84375 194.351562 422.382812 C 194.074219 422.285156 193.816406 422.242188 193.5625 422.242188 Z M 193.5625 422.242188 " fill-opacity="1" fill-rule="nonzero"/><g clip-path="url(#bd03238a74)"><path fill="#ffde59" d="M 247.226562 420.933594 C 248.125 420.152344 249.34375 420.425781 250.367188 420.738281 C 255.257812 422.242188 260.15625 423.75 265.046875 425.246094 C 265.9375 425.519531 266.921875 425.878906 267.269531 426.8125 C 267.421875 427.226562 267.429688 427.699219 267.402344 428.164062 C 267.261719 430.730469 265.472656 435.160156 260.558594 433.753906 C 258.457031 433.15625 240.933594 426.382812 247.226562 420.933594 Z M 247.226562 420.933594 " fill-opacity="1" fill-rule="nonzero"/></g><path fill="#ffde59" d="M 211.964844 352.976562 C 211.335938 352.113281 211.664062 350.914062 212.019531 349.902344 C 213.714844 345.074219 215.40625 340.253906 217.09375 335.425781 C 217.398438 334.546875 217.789062 333.582031 218.644531 333.21875 C 219.023438 333.058594 219.449219 333.042969 219.851562 333.050781 C 222.117188 333.121094 227.945312 336.734375 225.523438 340.535156 C 224.351562 342.386719 216.339844 359.011719 211.964844 352.976562 Z M 211.964844 352.976562 " fill-opacity="1" fill-rule="nonzero"/><g clip-path="url(#3aa34f7fec)"><path fill="#ffde59" d="M 174.605469 343.640625 C 174.699219 344.8125 174.78125 346.007812 174.441406 347.132812 C 174.097656 348.253906 173.234375 349.292969 172.078125 349.492188 C 171.03125 349.675781 169.960938 349.136719 169.234375 348.359375 C 168.511719 347.578125 168.070312 346.585938 167.640625 345.613281 C 166.324219 342.636719 165.011719 339.664062 163.695312 336.679688 C 162.726562 334.492188 161.808594 331.777344 163.257812 329.867188 C 163.96875 328.925781 165.125 328.425781 166.273438 328.144531 C 167.808594 327.769531 169.484375 327.734375 170.90625 328.410156 C 175.109375 330.410156 174.292969 339.78125 174.605469 343.640625 Z M 174.605469 343.640625 " fill-opacity="1" fill-rule="nonzero"/></g><path fill="#ffde59" d="M 250.269531 379.640625 C 249.140625 379.785156 247.984375 379.933594 246.828125 379.714844 C 245.671875 379.5 244.523438 378.84375 244.140625 377.898438 C 243.789062 377.042969 244.144531 376.113281 244.792969 375.464844 C 245.441406 374.820312 246.339844 374.386719 247.21875 373.976562 C 249.914062 372.699219 252.609375 371.425781 255.3125 370.152344 C 257.300781 369.210938 259.808594 368.285156 261.90625 369.371094 C 262.941406 369.90625 263.617188 370.832031 264.078125 371.765625 C 264.691406 373.019531 265 374.40625 264.566406 375.632812 C 263.292969 379.242188 253.996094 379.144531 250.269531 379.640625 Z M 250.269531 379.640625 " fill-opacity="1" fill-rule="nonzero"/><path fill="#ffde59" d="M 142.570312 366.457031 C 141.667969 368.476562 138.488281 367.371094 136.433594 366.910156 C 132.03125 365.921875 127.664062 364.679688 123.363281 363.191406 C 122.304688 362.820312 121.066406 362.214844 120.882812 360.917969 C 120.777344 360.1875 121.058594 359.464844 121.355469 358.808594 C 123.574219 353.863281 125.1875 352.816406 129.726562 354.996094 C 133.714844 356.933594 144.398438 362.394531 142.570312 366.457031 Z M 142.570312 366.457031 " fill-opacity="1" fill-rule="nonzero"/><path fill="#ffde59" d="M 128.492188 397.871094 C 128.484375 399.90625 119.679688 401.445312 114.464844 401.703125 C 112.585938 401.800781 107.480469 401.957031 106 400.792969 C 104.515625 399.621094 103.003906 393.6875 105.046875 392.527344 C 108.773438 390.425781 128.503906 390.425781 128.492188 397.871094 Z M 128.492188 397.871094 " fill-opacity="1" fill-rule="nonzero"/><path fill="#ffde59" d="M 131.558594 441.382812 C 130.199219 442.644531 128.824219 443.925781 127.179688 444.777344 C 125.539062 445.632812 122.714844 446.511719 121.023438 444.574219 C 119.664062 443.019531 119.511719 440.433594 120.847656 439.144531 C 125.285156 434.859375 130.433594 432.253906 134.726562 431.558594 C 143.632812 430.125 133.703125 439.390625 131.558594 441.382812 Z M 131.558594 441.382812 " fill-opacity="1" fill-rule="nonzero"/><g clip-path="url(#1641a58e02)"><path fill="#737373" d="M 920.542969 498.507812 C 920.269531 498.507812 919.996094 498.464844 919.722656 498.375 L 919.71875 498.375 C 918.019531 497.800781 916.324219 497.152344 914.6875 496.445312 C 909.441406 494.1875 904.394531 491.214844 899.253906 487.359375 C 894.566406 483.84375 866.886719 444.625 852.644531 422.792969 C 843.007812 408.011719 843.054688 406.722656 843.078125 406.097656 C 843.199219 402.605469 846.285156 398.742188 850.421875 396.917969 C 853.8125 395.421875 857.066406 395.6875 859.363281 397.640625 C 859.59375 397.835938 860.128906 398.292969 869.242188 410.582031 C 882.308594 428.195312 905.152344 459.558594 912.667969 470.109375 C 916.363281 475.289062 918.765625 479.011719 921.003906 486.972656 C 921.691406 489.402344 922.34375 492.1875 923.011719 495.480469 C 923.195312 496.371094 922.894531 497.265625 922.214844 497.867188 C 921.742188 498.292969 921.148438 498.507812 920.542969 498.507812 Z M 920.402344 496.355469 C 920.597656 496.417969 920.734375 496.332031 920.804688 496.273438 C 920.867188 496.21875 920.96875 496.097656 920.925781 495.90625 C 920.265625 492.660156 919.621094 489.925781 918.953125 487.546875 C 916.8125 479.917969 914.496094 476.335938 910.933594 471.34375 C 903.421875 460.796875 880.589844 429.460938 867.535156 411.851562 C 859.605469 401.152344 858.203125 399.472656 857.964844 399.246094 C 855.648438 397.273438 852.515625 398.324219 851.28125 398.867188 C 847.929688 400.347656 845.328125 403.460938 845.207031 406.132812 C 845.289062 406.601562 846.246094 409.074219 854.429688 421.628906 C 869.617188 444.910156 896.511719 482.636719 900.53125 485.652344 C 905.535156 489.410156 910.441406 492.300781 915.53125 494.488281 C 917.113281 495.167969 918.757812 495.800781 920.402344 496.355469 Z M 920.402344 496.355469 " fill-opacity="1" fill-rule="nonzero"/></g><path fill="#737373" d="M 920.0625 497.367188 C 918.351562 496.789062 916.132812 495.824219 914.542969 495.140625 C 915.089844 492.183594 917.488281 490.605469 920.523438 489.277344 C 921.191406 491.652344 921.304688 492.390625 921.972656 495.695312 C 922.195312 496.800781 921.132812 497.722656 920.0625 497.367188 Z M 920.0625 497.367188 " fill-opacity="1" fill-rule="nonzero"/><path fill="#737373" d="M 851.375 419.925781 C 851.15625 419.925781 850.9375 419.859375 850.75 419.71875 C 850.273438 419.375 850.167969 418.707031 850.519531 418.234375 C 853.671875 413.90625 857.933594 410.476562 862.828125 408.3125 C 863.625 407.960938 864.449219 407.710938 865.171875 407.488281 C 865.414062 407.414062 865.652344 407.34375 865.882812 407.269531 C 866.441406 407.089844 867.042969 407.398438 867.222656 407.960938 C 867.402344 408.519531 867.097656 409.121094 866.535156 409.300781 C 866.292969 409.375 866.046875 409.453125 865.789062 409.53125 C 865.089844 409.746094 864.367188 409.964844 863.683594 410.265625 C 859.128906 412.28125 855.167969 415.46875 852.234375 419.492188 C 852.027344 419.773438 851.703125 419.925781 851.375 419.925781 Z M 851.375 419.925781 " fill-opacity="1" fill-rule="nonzero"/><g clip-path="url(#7b25db2d2c)"><path fill="#737373" d="M 853.507812 424.109375 L 852.648438 422.789062 C 843.007812 408.011719 843.054688 406.722656 843.078125 406.097656 C 843.199219 402.605469 846.285156 398.742188 850.421875 396.917969 C 853.8125 395.421875 857.066406 395.6875 859.363281 397.640625 C 859.59375 397.835938 860.128906 398.292969 869.242188 410.582031 L 870.136719 411.789062 L 868.285156 412.363281 C 867.597656 412.574219 866.886719 412.792969 866.222656 413.082031 C 861.535156 415.152344 857.335938 418.609375 854.414062 422.8125 Z M 845.207031 406.132812 C 845.289062 406.585938 846.175781 408.902344 853.589844 420.335938 C 856.679688 416.351562 860.722656 413.1875 865.355469 411.136719 C 865.78125 410.949219 866.214844 410.792969 866.636719 410.648438 C 859.496094 401.027344 858.195312 399.464844 857.964844 399.25 C 855.648438 397.277344 852.515625 398.328125 851.28125 398.871094 C 847.929688 400.347656 845.328125 403.460938 845.207031 406.132812 Z M 845.207031 406.132812 " fill-opacity="1" fill-rule="nonzero"/></g><path fill="#737373" d="M 899.359375 487.097656 C 899.34375 487.097656 899.320312 487.097656 899.304688 487.097656 C 898.714844 487.070312 898.265625 486.570312 898.296875 485.980469 C 898.367188 484.628906 898.691406 482.816406 899.851562 481.867188 C 900.433594 481.390625 901.152344 481.199219 901.925781 481.3125 C 902.042969 481.328125 902.1875 481.351562 902.347656 481.378906 C 902.820312 481.457031 904.261719 481.691406 904.648438 481.542969 C 904.695312 481.519531 904.816406 481.152344 904.714844 480.507812 L 904.691406 480.359375 C 904.550781 479.507812 904.359375 478.34375 905.078125 477.386719 C 905.785156 476.445312 907.054688 476.113281 908.570312 476.46875 C 908.761719 476.515625 908.964844 476.570312 909.160156 476.625 C 909.710938 476.777344 910.234375 476.917969 910.636719 476.824219 C 910.878906 476.773438 911.199219 475.75 911.332031 475.3125 C 911.457031 474.921875 911.582031 474.519531 911.742188 474.164062 C 912.070312 473.425781 912.664062 472.894531 913.460938 472.617188 C 914.015625 472.421875 914.625 472.722656 914.8125 473.277344 C 915.003906 473.832031 914.707031 474.441406 914.152344 474.628906 C 913.851562 474.734375 913.746094 474.894531 913.683594 475.03125 C 913.574219 475.273438 913.472656 475.597656 913.367188 475.945312 C 913.023438 477.0625 912.546875 478.59375 911.089844 478.910156 C 910.179688 479.113281 909.34375 478.878906 908.601562 478.679688 C 908.429688 478.632812 908.253906 478.582031 908.082031 478.542969 C 907.484375 478.402344 906.9375 478.453125 906.785156 478.664062 C 906.605469 478.898438 906.707031 479.519531 906.792969 480.019531 L 906.816406 480.175781 C 907.054688 481.710938 906.628906 482.894531 905.640625 483.425781 C 904.800781 483.882812 903.492188 483.71875 902.007812 483.480469 C 901.859375 483.457031 901.730469 483.433594 901.621094 483.421875 C 901.40625 483.390625 901.296875 483.4375 901.199219 483.519531 C 900.792969 483.855469 900.484375 484.863281 900.421875 486.09375 C 900.394531 486.65625 899.921875 487.097656 899.359375 487.097656 Z M 899.359375 487.097656 " fill-opacity="1" fill-rule="nonzero"/><path fill="#737373" d="M 899.257812 479.648438 C 899.101562 479.648438 898.953125 479.582031 898.847656 479.453125 L 892.21875 471.105469 C 890.789062 469.300781 889.308594 467.441406 887.902344 465.5625 C 886.078125 463.125 884.324219 460.578125 882.625 458.121094 L 857.535156 421.777344 C 857.371094 421.539062 857.429688 421.210938 857.667969 421.046875 C 857.90625 420.882812 858.234375 420.941406 858.398438 421.183594 L 883.484375 457.519531 C 885.179688 459.972656 886.929688 462.507812 888.742188 464.933594 C 890.140625 466.800781 891.613281 468.65625 893.039062 470.453125 L 899.671875 478.800781 C 899.851562 479.027344 899.8125 479.359375 899.585938 479.539062 C 899.488281 479.613281 899.371094 479.648438 899.257812 479.648438 Z M 899.257812 479.648438 " fill-opacity="1" fill-rule="nonzero"/><path fill="#737373" d="M 904.632812 476.417969 C 904.484375 476.417969 904.332031 476.355469 904.230469 476.234375 C 902.988281 474.777344 901.738281 473.191406 900.523438 471.660156 C 898.78125 469.457031 897.136719 467.378906 895.847656 466.074219 C 893.035156 463.242188 871.515625 432.1875 863.183594 419.832031 C 863.019531 419.59375 863.085938 419.265625 863.328125 419.101562 C 863.566406 418.9375 863.894531 419 864.058594 419.246094 C 873.648438 433.464844 893.980469 462.695312 896.597656 465.332031 C 897.929688 466.671875 899.59375 468.777344 901.355469 471.003906 C 902.5625 472.527344 903.8125 474.109375 905.039062 475.550781 C 905.230469 475.773438 905.199219 476.101562 904.980469 476.292969 C 904.871094 476.375 904.75 476.417969 904.632812 476.417969 Z M 904.632812 476.417969 " fill-opacity="1" fill-rule="nonzero"/><path fill="#737373" d="M 909.605469 472.859375 C 909.449219 472.859375 909.296875 472.789062 909.191406 472.660156 C 904.195312 466.222656 899.371094 459.773438 894.707031 453.539062 C 890.050781 447.308594 885.230469 440.863281 880.238281 434.433594 C 878.070312 431.640625 875.84375 428.480469 873.6875 425.425781 C 871.507812 422.335938 869.257812 419.140625 867.132812 416.429688 C 866.953125 416.199219 866.996094 415.871094 867.222656 415.691406 C 867.453125 415.511719 867.78125 415.550781 867.960938 415.777344 C 870.101562 418.511719 872.359375 421.714844 874.550781 424.816406 C 876.695312 427.863281 878.914062 431.007812 881.070312 433.78125 C 886.066406 440.21875 890.890625 446.667969 895.546875 452.902344 C 900.207031 459.132812 905.027344 465.578125 910.019531 472.011719 C 910.199219 472.242188 910.15625 472.570312 909.925781 472.75 C 909.828125 472.820312 909.714844 472.859375 909.605469 472.859375 Z M 909.605469 472.859375 " fill-opacity="1" fill-rule="nonzero"/></svg>